PathFileType	4	(X/Y/Z)	/Users/itak/Documents/Research/Walk-IL/dataset/trc/00077_00006.trc
DataRate	CameraRate	NumFrames	NumMarkers	Units	OrigDataRate	OrigDataStartFrame	OrigNumFrames
100.000000	100.000000	4	53	mm	100.000000	271	724
Frame#	Time	RPSI			LPSI			L3			STRN			T10			C7			CLAV			RBAK			LBAK			LSHO			LUPA			LAEL			LAOL			LWTS			LWPS			LFRA			LIFD			LHPS			LHTS			RSHO			RUPA			RAEL			RAOL			RWTS			RWPS			RFRA			RIFD			RHTS			RHPS			RBHD			LFHD			RFHD			LBHD			LHIP			RHIP			RASI			LASI			LKNE			LTHI			LANK			LTIP			LTOE			LMT1			LMT5			LHEE			RKNE			RTHI			RANK			RTIP			RTOE			RMT1			RMT5			RHEE			
		X1	Y1	Z1	X2	Y2	Z2	X3	Y3	Z3	X4	Y4	Z4	X5	Y5	Z5	X6	Y6	Z6	X7	Y7	Z7	X8	Y8	Z8	X9	Y9	Z9	X10	Y10	Z10	X11	Y11	Z11	X12	Y12	Z12	X13	Y13	Z13	X14	Y14	Z14	X15	Y15	Z15	X16	Y16	Z16	X17	Y17	Z17	X18	Y18	Z18	X19	Y19	Z19	X20	Y20	Z20	X21	Y21	Z21	X22	Y22	Z22	X23	Y23	Z23	X24	Y24	Z24	X25	Y25	Z25	X26	Y26	Z26	X27	Y27	Z27	X28	Y28	Z28	X29	Y29	Z29	X30	Y30	Z30	X31	Y31	Z31	X32	Y32	Z32	X33	Y33	Z33	X34	Y34	Z34	X35	Y35	Z35	X36	Y36	Z36	X37	Y37	Z37	X38	Y38	Z38	X39	Y39	Z39	X40	Y40	Z40	X41	Y41	Z41	X42	Y42	Z42	X43	Y43	Z43	X44	Y44	Z44	X45	Y45	Z45	X46	Y46	Z46	X47	Y47	Z47	X48	Y48	Z48	X49	Y49	Z49	X50	Y50	Z50	X51	Y51	Z51	X52	Y52	Z52	X53	Y53	Z53	

272	2.71	-508.3464965820312	1005.784912109375	374.8046264648438	-678.8687744140625	1005.700073242188	399.1299743652344	-604.3194580078125	1073.858764648438	387.3002014160156	-617.6524047851562	1255.302368164062	116.7008438110352	-618.0467529296875	1204.163818359375	390.9728698730469	-620.0084228515625	1468.227783203125	314.6694030761719	-615.76318359375	1371.345092773438	140.6714019775391	-548.8975219726562	1332.312377929688	387.5345153808594	-719.9075317382812	1433.718994140625	337.6592407226562	-789.8659057617188	1439.47216796875	235.5970458984375	-881.0287475585938	1325.169677734375	256.7080688476562	-937.5020751953125	1118.354736328125	231.4840545654297	-854.4473876953125	1087.247680664062	290.3510437011719	-890.814453125	898.6444091796875	95.16529083251953	-949.9443359375	878.2344970703125	151.5450286865234	-954.1039428710938	1014.440307617188	192.7043609619141	-877.9736328125	724.1939697265625	45.25594711303711	-950.9949340820312	807.7158203125	99.34838104248047	-900.2786865234375	826.2811889648438	52.89231109619141	-445.7579650878906	1425.177978515625	259.132080078125	-384.6656188964844	1361.982788085938	282.354736328125	-335.6826782226562	1113.621337890625	353.4647216796875	-423.5603942871094	1079.969116210938	323.928466796875	-336.5763244628906	857.5611572265625	209.6622924804688	-295.2930603027344	843.8565673828125	285.4852600097656	-316.9657897949219	1030.5263671875	346.084716796875	-359.7453308105469	674.0650634765625	210.4997406005859	-330.615478515625	755.224609375	185.1094207763672	-285.9336242675781	753.9469604492188	249.2102203369141	-687.4420166015625	1654.365966796875	221.2019348144531	-486.6480102539062	1653.558349609375	142.8166656494141	-589.4217529296875	1675.667236328125	73.15468597412109	-571.4385375976562	1623.0791015625	288.4418334960938	-789.658203125	951.4080200195312	317.5471496582031	-437.8490600585938	934.7763061523438	297.4624633789062	-474.7031860351562	954.1666870117188	177.1355285644531	-742.2481689453125	948.9116821289062	190.7301635742188	-763.9519653320312	482.8971557617188	280.8311157226562	-788.8609008789062	627.9204711914062	296.8084106445312	-797.3291015625	57.11790084838867	498.3464660644531	-794.3338623046875	260.5055541992188	397.8663330078125	-817.2186889648438	42.19720077514648	295.930419921875	-756.7213745117188	43.78083038330078	337.0601501464844	-848.0526733398438	38.3531379699707	403.3908386230469	-716.7810668945312	60.81184005737305	544.1511840820312	-475.2454223632812	523.9697875976562	73.12181091308594	-433.4295349121094	777.04345703125	178.3017730712891	-538.2799072265625	42.96422958374023	6.147249698638916	-483.284423828125	400.1997985839844	54.92218017578125	-511.7733764648438	125.5127563476562	-185.7438659667969	-566.310791015625	104.916145324707	-149.0364685058594	-484.7481384277344	86.52091979980469	-95.67515563964844	-606.2733764648438	37.67423629760742	30.17996025085449	
273	2.72	-508.5677795410156	1003.225708007812	366.3057250976562	-679.4293823242188	1003.465270996094	389.46142578125	-604.5269165039062	1071.658081054688	378.400634765625	-615.1075439453125	1253.127319335938	107.4980163574219	-618.1605224609375	1202.111083984375	381.8280029296875	-619.4515991210938	1466.110107421875	305.32568359375	-613.3366088867188	1369.174194335938	131.4411926269531	-549.1344604492188	1330.329223632812	379.02734375	-719.6771850585938	1431.6376953125	327.2313842773438	-788.4625854492188	1437.27001953125	224.3433380126953	-879.6423950195312	1322.863891601562	243.9999542236328	-936.4127807617188	1116.460327148438	216.6474151611328	-854.2837524414062	1084.794067382812	276.5573120117188	-887.6314697265625	897.9567260742188	79.20707702636719	-947.7158203125	877.0904541015625	134.4448852539062	-952.4990234375	1012.915954589844	176.7462005615234	-874.169921875	723.9746704101562	27.91841697692871	-948.041748046875	807.0445556640625	81.58137512207031	-896.82177734375	826.0187377929688	36.02264022827148	-444.6779174804688	1423.074951171875	251.6324310302734	-383.8396301269531	1359.998779296875	275.626708984375	-334.9447021484375	1112.040649414062	347.99365234375	-422.4192504882812	1078.162841796875	317.6491394042969	-334.2796020507812	855.8148193359375	204.4296264648438	-293.6543884277344	842.2396240234375	280.6176452636719	-315.9784240722656	1028.9140625	340.9046020507812	-357.8582458496094	672.3018188476562	205.6107635498047	-328.38134765625	753.3419799804688	180.2517852783203	-284.2412414550781	752.1654052734375	244.6832427978516	-686.13916015625	1652.080200195312	210.9740447998047	-484.5019226074219	1651.527465820312	134.8796844482422	-586.5043334960938	1673.610595703125	63.97687149047852	-570.942138671875	1620.788940429688	279.441162109375	-789.1576538085938	949.5518798828125	306.3858032226562	-437.7814636230469	931.9584350585938	289.3054504394531	-473.6690368652344	951.8609619140625	168.6513519287109	-741.3479614257812	947.3614501953125	180.2244110107422	-763.5173950195312	481.7136840820312	275.4966125488281	-788.4619140625	626.8519897460938	289.3707580566406	-797.6683349609375	58.02043151855469	498.0852355957031	-794.32958984375	260.5874633789062	395.3574829101562	-817.2644653320312	42.13855743408203	295.9307556152344	-756.8297119140625	43.78318786621094	337.0143127441406	-848.2676391601562	38.46948623657227	403.2266845703125	-717.2147216796875	62.3338508605957	543.9832153320312	-475.7274475097656	519.9619140625	68.03285217285156	-432.9736328125	773.1223754882812	171.8710784912109	-535.265869140625	42.22343444824219	-16.36222839355469	-483.1336975097656	398.0212707519531	46.85083770751953	-505.3544006347656	131.3891448974609	-204.8306274414062	-560.5413208007812	109.5426483154297	-169.9290924072266	-479.8731689453125	89.29143524169922	-115.7101364135742	-603.639404296875	36.07430267333984	6.385743141174316	
274	2.73	-508.6518859863281	1000.678649902344	357.6500549316406	-679.7515258789062	1001.217468261719	379.5302124023438	-604.5799560546875	1069.428466796875	369.3275451660156	-612.3239135742188	1250.972290039062	98.20064544677734	-618.0719604492188	1200.038208007812	372.51806640625	-618.6215209960938	1463.984008789062	295.9032287597656	-610.6557006835938	1367.016723632812	122.1150436401367	-549.172607421875	1328.313842773438	370.3978271484375	-719.1915893554688	1429.555297851562	316.70947265625	-786.7677001953125	1435.049438476562	213.0016784667969	-877.9458618164062	1320.546875	231.2236022949219	-934.960693359375	1114.565063476562	201.9349212646484	-853.7169189453125	1082.36279296875	262.8408813476562	-884.2123413085938	897.2015991210938	63.50955963134766	-945.1807250976562	875.9144897460938	117.6475524902344	-950.5777587890625	1011.39404296875	160.9910888671875	-870.1631469726562	723.678955078125	10.91929340362549	-944.863037109375	806.3384399414062	64.14462280273438	-893.1127319335938	825.6807250976562	19.47793006896973	-443.3662109375	1420.964721679688	244.0600891113281	-382.7882690429688	1357.99365234375	268.8074951171875	-333.9868469238281	1110.3876953125	342.2950439453125	-421.1087036132812	1076.300048828125	311.2345275878906	-331.8396911621094	854.03515625	198.9354705810547	-291.8569946289062	840.5505981445312	275.4908447265625	-314.8021850585938	1027.235229492188	335.4727172851562	-355.8097229003906	670.4910278320312	200.4330749511719	-326.0060729980469	751.4262084960938	175.1136627197266	-282.3861083984375	750.34228515625	239.8614196777344	-684.6354370117188	1649.79833984375	200.6926422119141	-482.1507873535156	1649.544677734375	126.9047012329102	-583.3771362304688	1671.597412109375	54.76654052734375	-570.2114868164062	1618.517578125	270.3786010742188	-788.1727905273438	947.5038452148438	294.5790405273438	-437.5050964355469	929.1710815429688	281.0671691894531	-472.4509582519531	949.5822143554688	160.0622711181641	-740.2628784179688	945.8095703125	169.5144958496094	-762.8997192382812	480.5657958984375	270.0393371582031	-787.9286499023438	625.799560546875	281.7675476074219	-798.0409545898438	59.06869506835938	497.7870178222656	-794.281005859375	260.7955932617188	392.7562561035156	-817.3047485351562	42.07537460327148	295.9201049804688	-756.949951171875	43.78744125366211	336.949462890625	-848.5047607421875	38.61788177490234	403.0296325683594	-717.6830444335938	64.07550048828125	543.7753295898438	-476.2470092773438	516.2443237304688	62.39916610717773	-432.5627746582031	769.3468017578125	164.9911499023438	-532.4247436523438	41.72863388061523	-36.48177337646484	-482.9346008300781	395.9271240234375	38.83667755126953	-499.1297302246094	136.1682586669922	-221.8422393798828	-554.935302734375	113.3962936401367	-188.6304626464844	-475.249267578125	91.53233337402344	-133.505859375	-601.1504516601562	34.92661666870117	-14.99321937561035	
275	2.74	-508.6301574707031	998.2041015625	348.852294921875	-679.8767700195312	999.0198974609375	369.3148498535156	-604.5101318359375	1067.205200195312	360.0481872558594	-609.2876586914062	1248.868896484375	88.79402160644531	-617.7987670898438	1197.976806640625	363.0286254882812	-617.5209350585938	1461.889892578125	286.3898010253906	-607.7093505859375	1364.9072265625	112.6774826049805	-549.007568359375	1326.290161132812	361.6343383789062	-718.446533203125	1427.502319335938	306.0771179199219	-784.770263671875	1432.845458984375	201.5600433349609	-875.9342041015625	1318.257568359375	218.3759307861328	-933.150390625	1112.70458984375	187.3568725585938	-852.7474365234375	1079.989013671875	249.2103729248047	-880.5824584960938	896.3950805664062	48.09139633178711	-942.3421020507812	874.7203369140625	101.1911392211914	-948.336181640625	1009.895141601562	145.4648284912109	-865.960693359375	723.3128662109375	-5.704443454742432	-941.4640502929688	805.6043090820312	47.0767936706543	-889.1417236328125	825.2745971679688	3.297586679458618	-441.8131713867188	1418.876953125	236.4197082519531	-381.5029602050781	1355.997924804688	261.9012756347656	-332.8322448730469	1108.683959960938	336.3565673828125	-419.646240234375	1074.405639648438	304.6497802734375	-329.2496948242188	852.2357788085938	193.1808166503906	-289.9065246582031	838.8043823242188	270.1193237304688	-313.4571838378906	1025.507690429688	329.7796325683594	-353.5600280761719	668.642578125	194.9734649658203	-323.4638977050781	749.491455078125	169.70556640625	-280.3463439941406	748.4968872070312	234.7627105712891	-682.9290161132812	1647.555786132812	190.351806640625	-479.5911254882812	1647.6455078125	118.8855667114258	-580.0308227539062	1669.657958984375	45.52108383178711	-569.245361328125	1616.315795898438	261.2586059570312	-786.7410888671875	945.3064575195312	282.1570739746094	-437.0302734375	926.4844970703125	272.767822265625	-471.0258178710938	947.3455810546875	151.4010467529297	-738.99658203125	944.25439453125	158.6084747314453	-762.0962524414062	479.4472351074219	264.4175415039062	-787.2778930664062	624.7626342773438	273.9612731933594	-798.4425048828125	60.28599166870117	497.4419250488281	-794.2030639648438	261.1448669433594	390.0293273925781	-817.3414306640625	42.01077651977539	295.8930358886719	-757.0804443359375	43.79323959350586	336.8609924316406	-848.7596435546875	38.80100631713867	402.79541015625	-718.1692504882812	66.07351684570312	543.5162353515625	-476.6667785644531	512.9192504882812	56.13521194458008	-432.1634521484375	765.83203125	157.6269683837891	-530.0390625	41.26657485961914	-54.0153923034668	-482.6491088867188	393.8739318847656	30.81543731689453	-493.2863464355469	139.5019226074219	-236.7447509765625	-549.6983642578125	116.1587524414062	-205.0862731933594	-471.1072998046875	92.94641876220703	-148.9488067626953	-599.0987548828125	34.05670547485352	-33.77601623535156	
